<!DOCTYPE svg PUBLIC "-//W3C//DTD SVG 1.1//EN" "http://www.w3.org/Graphics/SVG/1.1/DTD/svg11.dtd">
<svg xmlns="http://www.w3.org/2000/svg" xmlns:xlink="http://www.w3.org/1999/xlink" version="1.1" width="151px" height="201px" viewBox="-0.5 -0.5 151 201"><defs/><g><rect x="0" y="180" width="150" height="20" fill="#7a7a7a" stroke="none" pointer-events="none"/><rect x="45" y="88" width="191" height="19" fill="#7a7a7a" stroke="none" transform="rotate(90,140.5,97.5)" pointer-events="none"/><rect x="33" y="150" width="87" height="19" fill="#7a7a7a" stroke="none" transform="rotate(180,76.5,159.5)" pointer-events="none"/><rect x="33" y="126" width="87" height="19" fill="#867c73" stroke="none" transform="rotate(180,76.5,135.5)" pointer-events="none"/><rect x="33" y="101" width="87" height="19" fill="#a38261" stroke="none" transform="rotate(180,76.5,110.5)" pointer-events="none"/><rect x="33" y="77" width="87" height="19" fill="#d38c47" stroke="none" transform="rotate(180,76.5,86.5)" pointer-events="none"/><rect x="33" y="53" width="87" height="19" fill="#f09135" stroke="none" transform="rotate(180,76.5,62.5)" pointer-events="none"/><rect x="33" y="28" width="87" height="19" fill="#e27e2f" stroke="none" transform="rotate(180,76.5,37.5)" pointer-events="none"/><rect x="0" y="0" width="150" height="20" fill="#7a7a7a" stroke="none" pointer-events="none"/><rect x="-86" y="91.5" width="191" height="19" fill="#7a7a7a" stroke="none" transform="rotate(90,9.5,101)" pointer-events="none"/></g></svg>